<svg width="601" height="342" viewBox="0 0 601 342" fill="none" xmlns="http://www.w3.org/2000/svg">
<path d="M46 172C68.4 92 102.5 23.5 135.5 37L283 122C297.8 132 326 126.167 335.5 122C345.9 116.4 353 116.5 353 98V57C349.5 12 307.6 -36 406 44C529 144 691 89.5 525 148.5C456.5 161 301 51 401 144C501 237 740 470 490 249C281.2 73.8 259.667 18 275 12C288.667 7.99995 314.2 5.19995 307 26C299.8 46.8 271 66 261 75C235 87.5 83.4 198 105 202C126.6 206 329 172 374 207C475 265.667 635 365.4 467 295C299 224.6 160.333 245 112 264L46 277C20.3334 287.667 -17.1551 302.756 10 258C37 213.5 42.08 186 46 172Z" stroke="black"/>
</svg>
